<svg data-v-423bf9ae="" xmlns="http://www.w3.org/2000/svg" viewBox="0 0 490 90" class="iconLeftSlogan"><!----><!----><!----><g data-v-423bf9ae="" id="c09c2007-e08e-456d-a829-30319a7ece27" fill="black" transform="matrix(4.285714285714286,0,0,4.285714285714286,164.04285448150975,-7.200000524520874)"><path d="M4.55 2.45L0.14 12.60L0.98 12.60L2.24 9.66L6.86 9.66L8.12 12.60L8.96 12.60ZM4.55 4.24L6.55 8.93L2.55 8.93ZM10.37 7.35C10.98 6.91 11.67 6.69 12.43 6.69C13.48 6.69 14 7.12 14 7.98L14 9.06C13.50 8.80 12.92 8.67 12.26 8.67C11.56 8.67 10.94 8.85 10.40 9.21C9.86 9.58 9.59 10.08 9.59 10.71C9.59 11.37 9.81 11.88 10.26 12.22C10.71 12.57 11.20 12.74 11.73 12.74C12.28 12.74 12.76 12.63 13.17 12.40C13.57 12.17 13.85 11.85 14 11.44L14 12.60L14.70 12.60L14.70 7.98C14.70 6.67 13.94 6.02 12.43 6.02C11.52 6.02 10.70 6.29 9.97 6.82ZM10.30 10.71C10.30 10.25 10.49 9.89 10.86 9.63C11.24 9.37 11.72 9.24 12.32 9.24C12.87 9.24 13.43 9.35 14 9.56L14 10.08C14 10.67 13.80 11.15 13.40 11.53C13.00 11.91 12.51 12.10 11.94 12.10C11.45 12.10 11.05 11.97 10.75 11.72C10.45 11.47 10.30 11.13 10.30 10.71ZM19.64 7.01L19.99 6.50C19.68 6.20 19.33 6.05 18.93 6.05C18.23 6.05 17.73 6.41 17.43 7.13L17.43 6.16L16.73 6.16L16.73 12.60L17.43 12.60L17.43 8.68C17.43 8.18 17.56 7.72 17.81 7.31C18.06 6.90 18.38 6.69 18.77 6.69C19.11 6.69 19.40 6.80 19.64 7.01ZM20.69 9.38C20.69 10.33 21.00 11.13 21.60 11.76C22.21 12.39 22.96 12.71 23.87 12.71C24.78 12.71 25.53 12.39 26.14 11.76C26.74 11.13 27.05 10.33 27.05 9.38C27.05 8.43 26.74 7.63 26.14 7.00C25.53 6.37 24.78 6.05 23.87 6.05C22.96 6.05 22.21 6.37 21.60 7.00C21.00 7.63 20.69 8.43 20.69 9.38ZM21.39 9.38C21.39 8.62 21.62 7.99 22.06 7.48C22.51 6.97 23.11 6.72 23.87 6.72C24.63 6.72 25.23 6.97 25.68 7.48C26.12 7.99 26.35 8.62 26.35 9.38C26.35 10.14 26.12 10.77 25.68 11.28C25.23 11.79 24.63 12.04 23.87 12.04C23.11 12.04 22.51 11.79 22.06 11.28C21.62 10.77 21.39 10.14 21.39 9.38ZM29.43 8.68C29.43 8.15 29.62 7.69 30.00 7.31C30.38 6.94 30.86 6.75 31.42 6.75C31.98 6.75 32.36 6.90 32.56 7.20C32.76 7.51 32.86 7.95 32.86 8.54L32.86 12.60L33.56 12.60L33.56 8.40C33.56 7.58 33.39 6.98 33.06 6.61C32.73 6.23 32.23 6.05 31.56 6.05C30.53 6.05 29.82 6.45 29.43 7.27L29.43 6.16L28.73 6.16L28.73 12.60L29.43 12.60ZM40.32 7.70C40.32 6.47 40.70 5.45 41.45 4.63C42.20 3.82 43.14 3.42 44.27 3.42C45.55 3.42 46.60 3.85 47.42 4.72L47.42 3.74C47.00 3.36 46.55 3.10 46.06 2.93C45.57 2.77 44.98 2.69 44.27 2.69C42.91 2.69 41.77 3.16 40.87 4.10C39.96 5.04 39.51 6.24 39.51 7.70C39.51 9.16 39.96 10.36 40.87 11.30C41.77 12.24 42.91 12.71 44.27 12.71C44.98 12.71 45.57 12.63 46.06 12.47C46.55 12.30 47.00 12.04 47.42 11.66L47.42 10.68C46.60 11.55 45.55 11.98 44.27 11.98C43.14 11.98 42.20 11.58 41.45 10.77C40.70 9.95 40.32 8.93 40.32 7.70ZM49.59 1.68L49.59 12.60L50.29 12.60L50.29 1.68ZM52.68 7.35C53.29 6.91 53.97 6.69 54.74 6.69C55.79 6.69 56.31 7.12 56.31 7.98L56.31 9.06C55.80 8.80 55.23 8.67 54.57 8.67C53.87 8.67 53.25 8.85 52.71 9.21C52.17 9.58 51.90 10.08 51.90 10.71C51.90 11.37 52.12 11.88 52.57 12.22C53.02 12.57 53.51 12.74 54.04 12.74C54.59 12.74 55.07 12.63 55.48 12.40C55.88 12.17 56.16 11.85 56.31 11.44L56.31 12.60L57.01 12.60L57.01 7.98C57.01 6.67 56.25 6.02 54.74 6.02C53.83 6.02 53.00 6.29 52.28 6.82ZM52.61 10.71C52.61 10.25 52.80 9.89 53.17 9.63C53.55 9.37 54.03 9.24 54.63 9.24C55.18 9.24 55.74 9.35 56.31 9.56L56.31 10.08C56.31 10.67 56.11 11.15 55.71 11.53C55.30 11.91 54.82 12.10 54.25 12.10C53.76 12.10 53.36 11.97 53.06 11.72C52.76 11.47 52.61 11.13 52.61 10.71ZM59.74 8.68C59.74 8.14 59.91 7.68 60.24 7.31C60.58 6.93 61.00 6.75 61.52 6.75C62.02 6.75 62.37 6.90 62.58 7.21C62.79 7.52 62.89 7.96 62.89 8.54L62.89 12.60L63.59 12.60L63.59 8.68C63.59 8.14 63.76 7.68 64.09 7.31C64.43 6.93 64.85 6.75 65.37 6.75C65.87 6.75 66.22 6.90 66.43 7.21C66.64 7.52 66.74 7.96 66.74 8.54L66.74 12.60L67.44 12.60L67.44 8.40C67.44 6.83 66.79 6.05 65.51 6.05C64.51 6.05 63.83 6.48 63.46 7.35C63.22 6.48 62.62 6.05 61.66 6.05C60.74 6.05 60.10 6.43 59.74 7.18L59.74 6.16L59.04 6.16L59.04 12.60L59.74 12.60ZM75.91 9.38C75.91 8.37 75.61 7.56 75.02 6.96C74.43 6.35 73.68 6.05 72.79 6.05C72.23 6.05 71.73 6.18 71.31 6.45C70.88 6.72 70.55 7.10 70.31 7.57L70.31 6.16L69.61 6.16L69.61 15.68L70.31 15.68L70.31 11.19C70.55 11.66 70.88 12.04 71.31 12.31C71.73 12.58 72.23 12.71 72.79 12.71C73.68 12.71 74.43 12.41 75.02 11.80C75.61 11.20 75.91 10.39 75.91 9.38ZM75.19 9.38C75.19 10.23 74.97 10.88 74.51 11.33C74.05 11.79 73.45 12.01 72.72 12.01C72.09 12.01 71.53 11.78 71.04 11.31C70.55 10.85 70.31 10.20 70.31 9.38C70.31 8.56 70.55 7.91 71.04 7.45C71.53 6.98 72.09 6.75 72.72 6.75C73.45 6.75 74.05 6.97 74.51 7.43C74.97 7.88 75.19 8.53 75.19 9.38Z"></path></g><!----><g data-v-423bf9ae="" id="aeeb6417-506f-401a-b00a-113cbad3b734" transform="matrix(1.6071428571428572,0,0,1.6071428571428572,-7.357142857142861,-35.35714285714286)" stroke="none" fill="black"><path d="M5 22v56h90V22H5zm2.2 1h86.2L64.7 58.5 7.2 23zm27.2 18L6 76.1V23.4L34.4 41zm.9.5L92.8 77H6.5l28.8-35.5zM65.6 59L94 23.9v52.7L65.6 59z"></path></g><!----><g data-v-423bf9ae="" id="d7d58621-c7c0-422e-8ab6-54516fd8264b" fill="black" transform="matrix(0.8586444629740355,0,0,0.8586444629740355,163.62107651790825,57.89632185814888)"><path d="M1.19 2.80L1.19 12.60L1.61 12.60L1.61 2.80ZM17.99 2.80L17.99 11.79L10.50 2.45L10.50 12.60L10.92 12.60L10.92 3.61L18.41 12.95L18.41 2.80ZM26.39 3.21L28.91 3.21L28.91 12.60L29.33 12.60L29.33 3.21L31.85 3.21L31.85 2.80L26.39 2.80ZM40.81 7.48L45.15 7.48L45.15 7.08L40.81 7.08L40.81 3.21L45.43 3.21L45.43 2.80L40.39 2.80L40.39 12.60L45.43 12.60L45.43 12.19L40.81 12.19ZM54.81 2.80L54.81 12.60L59.29 12.60L59.29 12.19L55.23 12.19L55.23 2.80ZM67.83 2.80L67.83 12.60L72.31 12.60L72.31 12.19L68.25 12.19L68.25 2.80ZM80.78 2.80L80.78 12.60L81.20 12.60L81.20 2.80ZM99.33 7.63L95.27 7.63L95.27 8.11L98.85 8.11C98.77 9.32 98.37 10.32 97.66 11.09C96.95 11.87 96.02 12.26 94.85 12.26C93.56 12.26 92.52 11.82 91.73 10.94C90.93 10.06 90.54 8.98 90.54 7.70C90.54 6.40 90.94 5.32 91.75 4.45C92.56 3.57 93.59 3.14 94.85 3.14C95.60 3.14 96.29 3.31 96.93 3.65C97.57 4.00 98.08 4.47 98.46 5.05L98.85 4.75C98.42 4.11 97.86 3.61 97.17 3.24C96.49 2.87 95.72 2.69 94.85 2.69C93.50 2.69 92.36 3.17 91.45 4.13C90.55 5.09 90.09 6.28 90.09 7.70C90.09 9.12 90.55 10.31 91.45 11.27C92.36 12.23 93.50 12.71 94.85 12.71C96.22 12.71 97.31 12.22 98.12 11.23C98.93 10.25 99.33 9.05 99.33 7.63ZM108.78 7.48L113.12 7.48L113.12 7.08L108.78 7.08L108.78 3.21L113.40 3.21L113.40 2.80L108.36 2.80L108.36 12.60L113.40 12.60L113.40 12.19L108.78 12.19ZM129.71 2.80L129.71 11.79L122.22 2.45L122.22 12.60L122.64 12.60L122.64 3.61L130.13 12.95L130.13 2.80ZM138.11 3.21L140.63 3.21L140.63 12.60L141.05 12.60L141.05 3.21L143.57 3.21L143.57 2.80L138.11 2.80ZM166.01 11.69L162.78 2.80L162.33 2.80L166.04 12.95L168.98 3.79L171.92 12.95L175.63 2.80L175.18 2.80L171.95 11.69L168.98 2.45ZM184.59 7.48L188.93 7.48L188.93 7.08L184.59 7.08L184.59 3.21L189.21 3.21L189.21 2.80L184.17 2.80L184.17 12.60L189.21 12.60L189.21 12.19L184.59 12.19ZM198.59 2.80L198.59 12.60L200.69 12.60C202.82 12.60 203.88 11.69 203.88 9.87C203.88 9.19 203.65 8.62 203.17 8.17C202.70 7.72 202.14 7.41 201.47 7.25C202.71 7.02 203.32 6.30 203.32 5.11C203.32 4.40 203.07 3.84 202.56 3.42C202.05 3.01 201.33 2.80 200.41 2.80ZM199.01 7.08L199.01 3.21L200.41 3.21C201.18 3.21 201.79 3.37 202.24 3.71C202.68 4.05 202.90 4.51 202.90 5.11C202.90 5.60 202.77 5.99 202.50 6.31C202.23 6.62 201.91 6.83 201.56 6.93C201.21 7.03 200.83 7.08 200.41 7.08ZM199.01 7.48L200.69 7.48C201.09 7.48 201.49 7.56 201.89 7.72C202.30 7.88 202.65 8.16 202.96 8.54C203.27 8.92 203.42 9.37 203.42 9.87C203.42 11.42 202.51 12.19 200.69 12.19L199.01 12.19ZM224.18 2.80L224.18 12.60L226.56 12.60C227.98 12.60 229.12 12.15 229.97 11.25C230.82 10.35 231.25 9.17 231.25 7.70C231.25 6.23 230.82 5.05 229.97 4.15C229.12 3.25 227.98 2.80 226.56 2.80ZM224.60 3.22L226.56 3.22C227.86 3.22 228.89 3.63 229.66 4.46C230.42 5.28 230.80 6.37 230.80 7.70C230.80 9.09 230.43 10.18 229.67 10.98C228.91 11.78 227.88 12.18 226.56 12.18L224.60 12.18ZM240.63 7.48L244.97 7.48L244.97 7.08L240.63 7.08L240.63 3.21L245.25 3.21L245.25 2.80L240.21 2.80L240.21 12.60L245.25 12.60L245.25 12.19L240.63 12.19ZM254.31 9.74L253.93 9.90C254.56 11.77 255.61 12.71 257.08 12.71C258.00 12.71 258.69 12.45 259.15 11.93C259.62 11.41 259.85 10.77 259.85 10.01C259.85 9.66 259.80 9.35 259.68 9.06C259.56 8.78 259.43 8.55 259.29 8.37C259.14 8.19 258.94 8.02 258.68 7.86C258.42 7.70 258.20 7.58 258.04 7.50C257.88 7.43 257.66 7.34 257.38 7.22C257.34 7.21 257.22 7.16 257.03 7.08C256.83 7.01 256.71 6.96 256.66 6.94C256.62 6.91 256.51 6.87 256.34 6.80C256.17 6.73 256.06 6.67 256.01 6.64C255.96 6.60 255.87 6.54 255.74 6.45C255.61 6.37 255.52 6.30 255.47 6.24C255.43 6.18 255.36 6.10 255.28 6.00C255.19 5.90 255.13 5.80 255.10 5.70C255.07 5.61 255.04 5.50 255.01 5.38C254.98 5.25 254.97 5.12 254.97 4.98C254.97 4.41 255.17 3.95 255.56 3.62C255.96 3.29 256.45 3.12 257.04 3.12C258.17 3.12 258.95 3.77 259.39 5.07L259.80 4.90C259.59 4.23 259.26 3.69 258.79 3.29C258.32 2.89 257.74 2.69 257.05 2.69C256.36 2.69 255.76 2.90 255.25 3.33C254.75 3.76 254.49 4.33 254.49 5.04C254.49 5.39 254.56 5.71 254.71 5.99C254.85 6.27 255.07 6.51 255.35 6.71C255.64 6.91 255.89 7.07 256.12 7.17C256.35 7.28 256.65 7.41 257.01 7.55C257.29 7.65 257.48 7.72 257.59 7.77C257.69 7.82 257.86 7.90 258.10 8.02C258.35 8.13 258.52 8.24 258.63 8.34C258.74 8.45 258.86 8.58 259.01 8.75C259.15 8.92 259.25 9.11 259.31 9.32C259.36 9.54 259.39 9.78 259.39 10.05C259.39 10.72 259.20 11.27 258.82 11.68C258.45 12.09 257.88 12.29 257.12 12.29C255.89 12.29 254.95 11.44 254.31 9.74ZM268.81 2.80L268.81 12.60L269.23 12.60L269.23 2.80ZM287.36 7.63L283.30 7.63L283.30 8.11L286.89 8.11C286.80 9.32 286.41 10.32 285.70 11.09C284.99 11.87 284.05 12.26 282.88 12.26C281.60 12.26 280.56 11.82 279.76 10.94C278.97 10.06 278.57 8.98 278.57 7.70C278.57 6.40 278.98 5.32 279.78 4.45C280.59 3.57 281.62 3.14 282.88 3.14C283.63 3.14 284.32 3.31 284.96 3.65C285.60 4.00 286.11 4.47 286.50 5.05L286.89 4.75C286.45 4.11 285.89 3.61 285.21 3.24C284.53 2.87 283.75 2.69 282.88 2.69C281.53 2.69 280.40 3.17 279.49 4.13C278.58 5.09 278.12 6.28 278.12 7.70C278.12 9.12 278.58 10.31 279.49 11.27C280.40 12.23 281.53 12.71 282.88 12.71C284.26 12.71 285.35 12.22 286.15 11.23C286.96 10.25 287.36 9.05 287.36 7.63ZM303.32 2.80L303.32 11.79L295.83 2.45L295.83 12.60L296.25 12.60L296.25 3.61L303.74 12.95L303.74 2.80Z"></path></g></svg>