<svg data-v-423bf9ae="" xmlns="http://www.w3.org/2000/svg" viewBox="0 0 490 90" class="iconLeftSlogan"><!----><!----><!----><g data-v-423bf9ae="" id="4ff8510a-09ab-46e2-bb5f-87c2be86f0d7" fill="white" transform="matrix(4.285714285714286,0,0,4.285714285714286,164.04285448150975,-7.200000524520874)"><path d="M4.55 2.45L0.14 12.60L0.98 12.60L2.24 9.66L6.86 9.66L8.12 12.60L8.96 12.60ZM4.55 4.24L6.55 8.93L2.55 8.93ZM10.37 7.35C10.98 6.91 11.67 6.69 12.43 6.69C13.48 6.69 14 7.12 14 7.98L14 9.06C13.50 8.80 12.92 8.67 12.26 8.67C11.56 8.67 10.94 8.85 10.40 9.21C9.86 9.58 9.59 10.08 9.59 10.71C9.59 11.37 9.81 11.88 10.26 12.22C10.71 12.57 11.20 12.74 11.73 12.74C12.28 12.74 12.76 12.63 13.17 12.40C13.57 12.17 13.85 11.85 14 11.44L14 12.60L14.70 12.60L14.70 7.98C14.70 6.67 13.94 6.02 12.43 6.02C11.52 6.02 10.70 6.29 9.97 6.82ZM10.30 10.71C10.30 10.25 10.49 9.89 10.86 9.63C11.24 9.37 11.72 9.24 12.32 9.24C12.87 9.24 13.43 9.35 14 9.56L14 10.08C14 10.67 13.80 11.15 13.40 11.53C13.00 11.91 12.51 12.10 11.94 12.10C11.45 12.10 11.05 11.97 10.75 11.72C10.45 11.47 10.30 11.13 10.30 10.71ZM19.64 7.01L19.99 6.50C19.68 6.20 19.33 6.05 18.93 6.05C18.23 6.05 17.73 6.41 17.43 7.13L17.43 6.16L16.73 6.16L16.73 12.60L17.43 12.60L17.43 8.68C17.43 8.18 17.56 7.72 17.81 7.31C18.06 6.90 18.38 6.69 18.77 6.69C19.11 6.69 19.40 6.80 19.64 7.01ZM20.69 9.38C20.69 10.33 21.00 11.13 21.60 11.76C22.21 12.39 22.96 12.71 23.87 12.71C24.78 12.71 25.53 12.39 26.14 11.76C26.74 11.13 27.05 10.33 27.05 9.38C27.05 8.43 26.74 7.63 26.14 7.00C25.53 6.37 24.78 6.05 23.87 6.05C22.96 6.05 22.21 6.37 21.60 7.00C21.00 7.63 20.69 8.43 20.69 9.38ZM21.39 9.38C21.39 8.62 21.62 7.99 22.06 7.48C22.51 6.97 23.11 6.72 23.87 6.72C24.63 6.72 25.23 6.97 25.68 7.48C26.12 7.99 26.35 8.62 26.35 9.38C26.35 10.14 26.12 10.77 25.68 11.28C25.23 11.79 24.63 12.04 23.87 12.04C23.11 12.04 22.51 11.79 22.06 11.28C21.62 10.77 21.39 10.14 21.39 9.38ZM29.43 8.68C29.43 8.15 29.62 7.69 30.00 7.31C30.38 6.94 30.86 6.75 31.42 6.75C31.98 6.75 32.36 6.90 32.56 7.20C32.76 7.51 32.86 7.95 32.86 8.54L32.86 12.60L33.56 12.60L33.56 8.40C33.56 7.58 33.39 6.98 33.06 6.61C32.73 6.23 32.23 6.05 31.56 6.05C30.53 6.05 29.82 6.45 29.43 7.27L29.43 6.16L28.73 6.16L28.73 12.60L29.43 12.60ZM40.32 7.70C40.32 6.47 40.70 5.45 41.45 4.63C42.20 3.82 43.14 3.42 44.27 3.42C45.55 3.42 46.60 3.85 47.42 4.72L47.42 3.74C47.00 3.36 46.55 3.10 46.06 2.93C45.57 2.77 44.98 2.69 44.27 2.69C42.91 2.69 41.77 3.16 40.87 4.10C39.96 5.04 39.51 6.24 39.51 7.70C39.51 9.16 39.96 10.36 40.87 11.30C41.77 12.24 42.91 12.71 44.27 12.71C44.98 12.71 45.57 12.63 46.06 12.47C46.55 12.30 47.00 12.04 47.42 11.66L47.42 10.68C46.60 11.55 45.55 11.98 44.27 11.98C43.14 11.98 42.20 11.58 41.45 10.77C40.70 9.95 40.32 8.93 40.32 7.70ZM49.59 1.68L49.59 12.60L50.29 12.60L50.29 1.68ZM52.68 7.35C53.29 6.91 53.97 6.69 54.74 6.69C55.79 6.69 56.31 7.12 56.31 7.98L56.31 9.06C55.80 8.80 55.23 8.67 54.57 8.67C53.87 8.67 53.25 8.85 52.71 9.21C52.17 9.58 51.90 10.08 51.90 10.71C51.90 11.37 52.12 11.88 52.57 12.22C53.02 12.57 53.51 12.74 54.04 12.74C54.59 12.74 55.07 12.63 55.48 12.40C55.88 12.17 56.16 11.85 56.31 11.44L56.31 12.60L57.01 12.60L57.01 7.98C57.01 6.67 56.25 6.02 54.74 6.02C53.83 6.02 53.00 6.29 52.28 6.82ZM52.61 10.71C52.61 10.25 52.80 9.89 53.17 9.63C53.55 9.37 54.03 9.24 54.63 9.24C55.18 9.24 55.74 9.35 56.31 9.56L56.31 10.08C56.31 10.67 56.11 11.15 55.71 11.53C55.30 11.91 54.82 12.10 54.25 12.10C53.76 12.10 53.36 11.97 53.06 11.72C52.76 11.47 52.61 11.13 52.61 10.71ZM59.74 8.68C59.74 8.14 59.91 7.68 60.24 7.31C60.58 6.93 61.00 6.75 61.52 6.75C62.02 6.75 62.37 6.90 62.58 7.21C62.79 7.52 62.89 7.96 62.89 8.54L62.89 12.60L63.59 12.60L63.59 8.68C63.59 8.14 63.76 7.68 64.09 7.31C64.43 6.93 64.85 6.75 65.37 6.75C65.87 6.75 66.22 6.90 66.43 7.21C66.64 7.52 66.74 7.96 66.74 8.54L66.74 12.60L67.44 12.60L67.44 8.40C67.44 6.83 66.79 6.05 65.51 6.05C64.51 6.05 63.83 6.48 63.46 7.35C63.22 6.48 62.62 6.05 61.66 6.05C60.74 6.05 60.10 6.43 59.74 7.18L59.74 6.16L59.04 6.16L59.04 12.60L59.74 12.60ZM75.91 9.38C75.91 8.37 75.61 7.56 75.02 6.96C74.43 6.35 73.68 6.05 72.79 6.05C72.23 6.05 71.73 6.18 71.31 6.45C70.88 6.72 70.55 7.10 70.31 7.57L70.31 6.16L69.61 6.16L69.61 15.68L70.31 15.68L70.31 11.19C70.55 11.66 70.88 12.04 71.31 12.31C71.73 12.58 72.23 12.71 72.79 12.71C73.68 12.71 74.43 12.41 75.02 11.80C75.61 11.20 75.91 10.39 75.91 9.38ZM75.19 9.38C75.19 10.23 74.97 10.88 74.51 11.33C74.05 11.79 73.45 12.01 72.72 12.01C72.09 12.01 71.53 11.78 71.04 11.31C70.55 10.85 70.31 10.20 70.31 9.38C70.31 8.56 70.55 7.91 71.04 7.45C71.53 6.98 72.09 6.75 72.72 6.75C73.45 6.75 74.05 6.97 74.51 7.43C74.97 7.88 75.19 8.53 75.19 9.38Z"></path></g><!----><g data-v-423bf9ae="" id="b52925a4-2938-42ac-924f-43d0206464d2" transform="matrix(1.6071428571428572,0,0,1.6071428571428572,-7.357142857142861,-35.35714285714286)" stroke="none" fill="white"><path d="M5 22v56h90V22H5zm2.2 1h86.2L64.7 58.5 7.2 23zm27.2 18L6 76.1V23.4L34.4 41zm.9.5L92.8 77H6.5l28.8-35.5zM65.6 59L94 23.9v52.7L65.6 59z"></path></g><!----><g data-v-423bf9ae="" id="23dec9ac-d04a-4bd3-9136-f53e9302402b" fill="white" transform="matrix(Infinity,0,0,Infinity,0,0)"><path d=""></path></g></svg>